<?xml version="1.0" encoding="UTF-8" standalone="no"?>
<!-- Generator: Adobe Illustrator 19.0.0, SVG Export Plug-In . SVG Version: 6.00 Build 0)  -->

<svg
   xmlns:dc="http://purl.org/dc/elements/1.1/"
   xmlns:cc="http://creativecommons.org/ns#"
   xmlns:rdf="http://www.w3.org/1999/02/22-rdf-syntax-ns#"
   xmlns:svg="http://www.w3.org/2000/svg"
   xmlns="http://www.w3.org/2000/svg"
   xmlns:sodipodi="http://sodipodi.sourceforge.net/DTD/sodipodi-0.dtd"
   xmlns:inkscape="http://www.inkscape.org/namespaces/inkscape"
   xmlns:xlink="http://www.w3.org/1999/xlink"
   version="1.1"
   x="0px"
   y="0px"
   viewBox="0 0 1190.6 841.9"
   style="enable-background:new 0 0 1190.6 841.9;"
   xml:space="preserve"
   id="svg360"
   sodipodi:docname="secondfloor.svg"
   inkscape:version="0.92.3 (2405546, 2018-03-11)"><metadata
   id="metadata366"><rdf:RDF><cc:Work
       rdf:about=""><dc:format>image/svg+xml</dc:format><dc:type
         rdf:resource="http://purl.org/dc/dcmitype/StillImage" /><dc:title></dc:title></cc:Work></rdf:RDF></metadata><defs
   id="defs364" /><sodipodi:namedview
   pagecolor="#ffffff"
   bordercolor="#666666"
   borderopacity="1"
   objecttolerance="10"
   gridtolerance="10"
   guidetolerance="10"
   inkscape:pageopacity="0"
   inkscape:pageshadow="2"
   inkscape:window-width="1920"
   inkscape:window-height="1013"
   id="namedview362"
   showgrid="false"
   inkscape:zoom="1.5857199"
   inkscape:cx="491.56161"
   inkscape:cy="420.95001"
   inkscape:window-x="-9"
   inkscape:window-y="-9"
   inkscape:window-maximized="1"
   inkscape:current-layer="svg360" />
<style
   type="text/css"
   id="style2">
	.st0{fill:none;stroke:#000000;stroke-width:3;stroke-miterlimit:10;}
	.st1{fill:none;stroke:#000000;stroke-width:0.5;stroke-miterlimit:10;}
	.st2{fill:none;stroke:#000000;stroke-width:3;stroke-linecap:round;stroke-linejoin:round;stroke-miterlimit:10;}
	.st3{stroke:#000000;stroke-linecap:round;stroke-linejoin:round;stroke-miterlimit:10;}
	.st4{fill:none;stroke:#000000;stroke-miterlimit:10;}
	.st5{stroke:#000000;stroke-miterlimit:10;}
	.st6{fill:none;}
	.st7{font-family:'MyriadPro-Regular';}
	.st8{font-size:12px;}
	.st9{font-size:11px;}
	.st10{stroke:#000000;stroke-width:3;stroke-miterlimit:10;}
	.st11{font-size:10px;}
</style>
<g
   id="outerwall">
	<path
   class="st0"
   d="M204.8,169.4l9.7,448.2l136-1v-19l50.4-1.5l1.1,21.5l385.7-1l154-2l-3.1-419.1H554.5   C554.5,195.6,354.3,191.8,204.8,169.4z"
   id="path4" />
</g>
<g
   id="Layer_3">
	<polyline
   class="st0"
   points="350.2,185.4 350.2,308.6 338.9,307.7  "
   id="polyline7" />
	<line
   class="st0"
   x1="317.4"
   y1="308.5"
   x2="207.8"
   y2="308.5"
   id="line9" />
	<polyline
   class="st0"
   points="211.2,465.7 276.4,465.7 276.4,408.3 321.5,408.3 321.5,342.5 301.6,342.5 208.5,342.4  "
   id="polyline11" />
	<polyline
   class="st0"
   points="238,465.2 238.7,441.2 276.4,441.2  "
   id="polyline13" />
	<polyline
   class="st0"
   points="285,408.3 284.6,367.7 321.5,367.7  "
   id="polyline15" />
	<path
   class="st1"
   d="M321.5,348l-14.9,0.8c0,0-1.1,13.9,14.9,13.6"
   id="path17" />
	<path
   class="st1"
   d="M321.5,342.5"
   id="path19" />
	<line
   class="st0"
   x1="340.3"
   y1="342.5"
   x2="644.5"
   y2="342.4"
   id="line21" />
	<polyline
   class="st0"
   points="784.6,342.4 835.4,342.4 836,371  "
   id="polyline23" />
	<polyline
   class="st0"
   points="835,395 835,466 783.9,466  "
   id="polyline25" />
	<polyline
   class="st0"
   points="638.7,439.2 638.7,466 348.5,465.2 348.5,342.5  "
   id="polyline27" />
	<polyline
   class="st0"
   points="324.9,408.3 321.5,408.3 330,408.3  "
   id="polyline29" />
	<polyline
   class="st0"
   points="276.4,465.7 320.1,465.7 323.9,465.7  "
   id="polyline31" />
	<line
   class="st0"
   x1="344"
   y1="465.7"
   x2="348.5"
   y2="465.2"
   id="line33" />
	<polyline
   class="st0"
   points="605.4,525.3 466.6,524.9 445.7,523.9  "
   id="polyline35" />
	<line
   class="st0"
   x1="626.9"
   y1="524.9"
   x2="749.6"
   y2="524.9"
   id="line37" />
	<polyline
   class="st0"
   points="770.3,524.9 786.4,524.9 786.4,501.1 800.3,501.1  "
   id="polyline39" />
	<polyline
   class="st0"
   points="821.9,501.1 837.9,501.1 837.9,478.7  "
   id="polyline41" />
	<polyline
   class="st0"
   points="884.6,615.5 884.6,555.7 863.6,555.7 863.6,501.1 837.9,501.1  "
   id="polyline43" />
	<line
   class="st0"
   x1="786.4"
   y1="524.9"
   x2="786.4"
   y2="616.6"
   id="line45" />
	<line
   class="st0"
   x1="641.7"
   y1="524.9"
   x2="641.3"
   y2="616.5"
   id="line47" />
	<polyline
   class="st0"
   points="381,523.9 445.7,523.9 445.7,617.2  "
   id="polyline49" />
	<line
   class="st2"
   x1="863.6"
   y1="501.1"
   x2="863.8"
   y2="495.9"
   id="line51" />
	<line
   class="st2"
   x1="862.6"
   y1="477.1"
   x2="862.6"
   y2="469.1"
   id="line53" />
	<line
   class="st2"
   x1="863.2"
   y1="459"
   x2="863.2"
   y2="453.7"
   id="line55" />
	<line
   class="st2"
   x1="863.2"
   y1="443.6"
   x2="863.2"
   y2="439.3"
   id="line57" />
	<line
   class="st2"
   x1="863.8"
   y1="430"
   x2="863.8"
   y2="424.8"
   id="line59" />
	<line
   class="st2"
   x1="840.7"
   y1="399.5"
   x2="835"
   y2="399.5"
   id="line61" />
	<polyline
   class="st2"
   points="863.2,473.1 888.5,473.8 888.5,413.9 863.2,413.9 863.2,399.5 856.4,399.5  "
   id="polyline63" />
	<polyline
   class="st2"
   points="888.5,414.1 909,414.1 909,342.1 853.4,342.1  "
   id="polyline65" />
	<line
   class="st2"
   x1="838.8"
   y1="342.4"
   x2="835.4"
   y2="342.4"
   id="line67" />
	<rect
   x="909"
   y="342.1"
   class="st3"
   width="30"
   height="127"
   id="rect69" />
	<rect
   x="888.5"
   y="413.9"
   class="st3"
   width="50.5"
   height="55.2"
   id="rect71" />
	<path
   class="st3"
   d="M940.7,469.1"
   id="path73" />
	<polyline
   class="st3"
   points="940.7,469.1 905.5,469.1 940,371  "
   id="polyline75" />
	<rect
   x="888.5"
   y="469.1"
   class="st3"
   width="12.1"
   height="12.2"
   id="rect77" />
	<line
   class="st0"
   x1="348.5"
   y1="408.3"
   x2="340.3"
   y2="408.3"
   id="line79" />
	<line
   class="st0"
   x1="321.5"
   y1="342.5"
   x2="330"
   y2="342.5"
   id="line81" />
	<line
   class="st0"
   x1="238.7"
   y1="355.2"
   x2="238.7"
   y2="363.4"
   id="line83" />
	<line
   class="st0"
   x1="238.7"
   y1="374.4"
   x2="238.7"
   y2="382.6"
   id="line85" />
	<polyline
   class="st0"
   points="350.5,597.6 350.7,524.3 359.6,524.3  "
   id="polyline87" />
	<line
   class="st0"
   x1="350.7"
   y1="524.3"
   x2="350.7"
   y2="516.4"
   id="line89" />
	<polyline
   class="st0"
   points="350.7,507.8 350.5,497.9 211.9,497.9  "
   id="polyline91" />
</g>
<g
   id="Layer_4">
	<rect
   x="527.6"
   y="375.1"
   class="st4"
   width="111.1"
   height="64.1"
   id="rect94" />
	<path
   class="st4"
   d="M527.6,407.1"
   id="path96" />
	<line
   class="st4"
   x1="532"
   y1="375.1"
   x2="532"
   y2="439.2"
   id="line98" />
	<line
   class="st4"
   x1="536.7"
   y1="375.1"
   x2="536.7"
   y2="438.6"
   id="line100" />
	<line
   class="st4"
   x1="540.7"
   y1="375.1"
   x2="540.7"
   y2="439.2"
   id="line102" />
	<line
   class="st4"
   x1="544.5"
   y1="375.1"
   x2="544.5"
   y2="439.2"
   id="line104" />
	<line
   class="st4"
   x1="549"
   y1="375.1"
   x2="549"
   y2="439.2"
   id="line106" />
	<line
   class="st4"
   x1="553.7"
   y1="375.1"
   x2="553.7"
   y2="439.2"
   id="line108" />
	<line
   class="st4"
   x1="558"
   y1="375.1"
   x2="558"
   y2="439.2"
   id="line110" />
	<line
   class="st4"
   x1="561.7"
   y1="375.1"
   x2="561.7"
   y2="439.2"
   id="line112" />
	<line
   class="st4"
   x1="566"
   y1="375.1"
   x2="566"
   y2="438.6"
   id="line114" />
	<line
   class="st4"
   x1="591.7"
   y1="375.1"
   x2="591.7"
   y2="439.2"
   id="line116" />
	<line
   class="st4"
   x1="596.3"
   y1="375.1"
   x2="596.3"
   y2="438.9"
   id="line118" />
	<line
   class="st4"
   x1="600.3"
   y1="375.1"
   x2="600.3"
   y2="438.9"
   id="line120" />
	<line
   class="st4"
   x1="605.3"
   y1="375.1"
   x2="605.3"
   y2="438.9"
   id="line122" />
	<line
   class="st4"
   x1="609.3"
   y1="375.1"
   x2="609.3"
   y2="438.9"
   id="line124" />
	<line
   class="st4"
   x1="613.7"
   y1="375.1"
   x2="613.7"
   y2="438.9"
   id="line126" />
	<line
   class="st4"
   x1="618"
   y1="375.1"
   x2="618"
   y2="438.9"
   id="line128" />
	<line
   class="st4"
   x1="622"
   y1="375.1"
   x2="622"
   y2="438.9"
   id="line130" />
	<line
   class="st4"
   x1="626"
   y1="375.1"
   x2="626"
   y2="439.2"
   id="line132" />
	<line
   class="st4"
   x1="630.3"
   y1="375.1"
   x2="630.3"
   y2="439.2"
   id="line134" />
	<line
   class="st4"
   x1="634.7"
   y1="375.1"
   x2="634.7"
   y2="438.9"
   id="line136" />
	<path
   class="st4"
   d="M527.6,407.1"
   id="path138" />
	<polyline
   class="st4"
   points="527.6,408.8 638.7,408.8 634.4,392.4 634.4,420.6  "
   id="polyline140" />
	<line
   class="st4"
   x1="638.8"
   y1="409.3"
   x2="634.5"
   y2="420.9"
   id="line142" />
	<line
   class="st0"
   x1="208.5"
   y1="359.9"
   x2="238.7"
   y2="359.9"
   id="line144" />
	<path
   class="st4"
   d="M171,362.3"
   id="path146" />
	<line
   class="st0"
   x1="238.7"
   y1="378.5"
   x2="209.4"
   y2="378.5"
   id="line148" />
	<line
   class="st0"
   x1="238.7"
   y1="397.2"
   x2="209.4"
   y2="397.2"
   id="line150" />
	<line
   class="st0"
   x1="238.7"
   y1="415.9"
   x2="210.2"
   y2="416.9"
   id="line152" />
	<rect
   x="211.2"
   y="441.2"
   class="st5"
   width="27.4"
   height="24.4"
   id="rect154" />
	<line
   class="st4"
   x1="320.8"
   y1="430.6"
   x2="320.8"
   y2="426.7"
   id="line156" />
	<line
   class="st4"
   x1="321.5"
   y1="443.4"
   x2="321.5"
   y2="447.3"
   id="line158" />
	<path
   class="st4"
   d="M320.8,445.3"
   id="path160" />
	<polyline
   class="st0"
   points="320.8,427.4 297.6,427.4 297.6,446.6 321.5,446.6  "
   id="polyline162" />
	<line
   class="st4"
   x1="320.1"
   y1="408.3"
   x2="320.1"
   y2="427.4"
   id="line164" />
	<line
   class="st4"
   x1="316.6"
   y1="408.3"
   x2="316.6"
   y2="427.4"
   id="line166" />
	<line
   class="st4"
   x1="313.2"
   y1="408.3"
   x2="313.2"
   y2="427.4"
   id="line168" />
	<line
   class="st4"
   x1="309.6"
   y1="408.3"
   x2="309.6"
   y2="427.4"
   id="line170" />
	<line
   class="st4"
   x1="306.3"
   y1="408.3"
   x2="306.3"
   y2="427.4"
   id="line172" />
	<line
   class="st4"
   x1="303.1"
   y1="408.3"
   x2="303.1"
   y2="427.4"
   id="line174" />
	<line
   class="st4"
   x1="299.4"
   y1="408.3"
   x2="299.4"
   y2="427.4"
   id="line176" />
	<line
   class="st4"
   x1="276.4"
   y1="429.7"
   x2="297.6"
   y2="429.7"
   id="line178" />
	<line
   class="st4"
   x1="276.4"
   y1="433.2"
   x2="297.6"
   y2="433.2"
   id="line180" />
	<line
   class="st4"
   x1="275.8"
   y1="437"
   x2="297.6"
   y2="437"
   id="line182" />
	<line
   class="st4"
   x1="275.8"
   y1="440"
   x2="297.6"
   y2="440"
   id="line184" />
	<line
   class="st4"
   x1="276.4"
   y1="443.4"
   x2="297.6"
   y2="443.4"
   id="line186" />
	<line
   class="st4"
   x1="275.8"
   y1="446.6"
   x2="297.6"
   y2="446.6"
   id="line188" />
	<line
   class="st4"
   x1="315.3"
   y1="446.9"
   x2="315.3"
   y2="466"
   id="line190" />
	<line
   class="st4"
   x1="311.9"
   y1="446.9"
   x2="311.9"
   y2="466"
   id="line192" />
	<line
   class="st4"
   x1="308.3"
   y1="446.9"
   x2="308.3"
   y2="466"
   id="line194" />
	<line
   class="st4"
   x1="305"
   y1="446.9"
   x2="305"
   y2="466"
   id="line196" />
	<line
   class="st4"
   x1="301.7"
   y1="446.9"
   x2="301.7"
   y2="466"
   id="line198" />
	<line
   class="st4"
   x1="298.1"
   y1="446.9"
   x2="298.1"
   y2="466"
   id="line200" />
	<line
   class="st4"
   x1="320.1"
   y1="446.6"
   x2="320.1"
   y2="465.7"
   id="line202" />
	<line
   class="st0"
   x1="238.7"
   y1="393.1"
   x2="238.7"
   y2="401.3"
   id="line204" />
	<line
   class="st0"
   x1="238.7"
   y1="410.7"
   x2="238.7"
   y2="418.8"
   id="line206" />
</g>
<g
   id="Layer_5">
	<polyline
   class="st4"
   points="320.1,456.5 287.8,456.5 287.8,417.5 316.6,417.5  "
   id="polyline209" />
</g>
<g
   id="Layer_6">
	<polyline
   class="st4"
   points="313.2,408.3 316.6,417.5 313.2,426.7  "
   id="polyline212" />
	<rect
   x="590.2"
   y="352.7"
   class="st4"
   width="71.4"
   height="21.3"
   id="rect214" />
</g>
<g
   id="Layer_7">
	<line
   class="st4"
   x1="659.7"
   y1="352.7"
   x2="659.7"
   y2="374"
   id="line217" />
	<polyline
   class="st4"
   points="599,352.7 594.2,363.4 599,374  "
   id="polyline219" />
</g>
<g
   id="Layer_8">
	<line
   class="st4"
   x1="594.2"
   y1="363.4"
   x2="659.7"
   y2="363.4"
   id="line222" />
	<rect
   x="591.7"
   y="251.9"
   class="st6"
   width="292"
   height="48"
   id="rect224" />
	<text
   transform="matrix(1 0 0 1 591.6667 260.41)"
   class="st7 st8"
   id="text226">Arbeidssoner</text>

	<polygon
   points="638.8,466 649.2,466 693.8,466  "
   id="polygon228" />
	<line
   x1="649.5"
   y1="502.1"
   x2="649.2"
   y2="466"
   id="line230" />
	<polyline
   class="st0"
   points="638.8,466 644,466 693.8,466  "
   id="polyline232" />
	<polyline
   class="st0"
   points="653,502.1 643.8,502.1 644,466  "
   id="polyline234" />
	<polyline
   class="st0"
   points="680.3,502.1 688.6,502.1 687.5,466  "
   id="polyline236" />
	<polyline
   class="st0"
   points="864,378 864,381.1 888.4,381.1 888.4,360.5 864,360.5 864,365.2  "
   id="polyline238" />
	<polyline
   class="st4"
   points="865.3,342.1 865.3,351.3 865.3,360.5  "
   id="polyline240" />
	<polyline
   class="st4"
   points="897.6,351.3 897.6,390.3 869.2,390.3  "
   id="polyline242" />
	<path
   class="st0"
   d="M863.2,399.5h43.7c2.1,0.1,3.5,0,3.5,0"
   id="path244" />
	<line
   class="st4"
   x1="865.3"
   y1="381.1"
   x2="865.3"
   y2="399.5"
   id="line246" />
	<rect
   x="701.8"
   y="400.8"
   class="st6"
   width="292"
   height="48"
   id="rect248" />
	<text
   transform="matrix(1 0 0 1 701.8466 409.2782)"
   class="st7 st8"
   id="text250">Arbeidssoner</text>

</g>
<g
   id="Layer_9">
	<polyline
   class="st4"
   points="873.1,381.1 869.2,390.3 873.1,399.5  "
   id="polyline253"
   style="fill:none;stroke:#000000;stroke-miterlimit:10" />
	<line
   class="st4"
   x1="898.09998"
   y1="351.29999"
   x2="865.79999"
   y2="351.29999"
   id="line255"
   style="fill:none;stroke:#000000;stroke-miterlimit:10" />
	<rect
   x="837.59998"
   y="366.5"
   class="st6"
   width="60.5"
   height="29.200001"
   id="rect257"
   style="fill:none" />
	<text
   transform="translate(837.5877,374.2904)"
   class="st7 st9"
   id="text259"
   style="font-size:11px;font-family:MyriadPro-Regular">Heis/Trapp</text>

	<path
   d="M 863.8,427.4"
   id="path261"
   inkscape:connector-curvature="0" />
	<line
   class="st10"
   x1="863.79999"
   y1="427.39999"
   x2="891.5"
   y2="427.39999"
   id="line263"
   style="stroke:#000000;stroke-width:3;stroke-miterlimit:10" />
	<line
   class="st10"
   x1="863.59998"
   y1="441.5"
   x2="890.20001"
   y2="441.5"
   id="line265"
   style="stroke:#000000;stroke-width:3;stroke-miterlimit:10" />
	<line
   class="st10"
   x1="863.20001"
   y1="456.39999"
   x2="891.5"
   y2="456.39999"
   id="line267"
   style="stroke:#000000;stroke-width:3;stroke-miterlimit:10" />
	<rect
   x="867.29999"
   y="430"
   class="st6"
   width="20"
   height="11.8"
   id="rect269"
   style="fill:none" />
	<text
   transform="translate(867.3478,437.8238)"
   class="st7 st9"
   id="text271"
   style="font-size:11px;font-family:MyriadPro-Regular">wc</text>

	<rect
   x="866.20001"
   y="415"
   class="st6"
   width="20"
   height="11.8"
   id="rect273"
   style="fill:none" />
	<text
   transform="translate(866.212,422.8386)"
   class="st7 st9"
   id="text275"
   style="font-size:11px;font-family:MyriadPro-Regular">wc</text>

	<rect
   x="866.20001"
   y="443.60001"
   class="st6"
   width="20"
   height="11.8"
   id="rect277"
   style="fill:none" />
	<text
   transform="translate(866.212,451.4443)"
   class="st7 st9"
   id="text279"
   style="font-size:11px;font-family:MyriadPro-Regular">wc</text>

	<rect
   x="866.90002"
   y="459"
   class="st6"
   width="20"
   height="11.8"
   id="rect281"
   style="fill:none" />
	<text
   transform="translate(866.8654,466.8365)"
   class="st7 st9"
   id="text283"
   style="font-size:11px;font-family:MyriadPro-Regular">wc</text>

	<rect
   x="888.5"
   y="510.60001"
   class="st6"
   width="63"
   height="36.5"
   id="rect285"
   style="fill:none" />
	<text
   transform="translate(888.4955,518.4496)"
   class="st7 st9"
   id="text287"
   style="font-size:11px;font-family:MyriadPro-Regular">Maclab</text>

	<rect
   x="808.09998"
   y="560.59998"
   class="st6"
   width="59.5"
   height="42.5"
   id="rect289"
   style="fill:none" />
	<text
   transform="translate(808.1045,568.4211)"
   class="st7 st9"
   id="text291"
   style="font-size:11px;font-family:MyriadPro-Regular">Maclab</text>

	<rect
   x="656"
   y="478.70001"
   class="st6"
   width="56.900002"
   height="29.1"
   id="rect293"
   style="fill:none" />
	<text
   transform="translate(656.0444,486.5366)"
   class="st7 st9"
   id="text295"
   style="font-size:11px;font-family:MyriadPro-Regular">Heis</text>

	<rect
   x="688.29999"
   y="560.59998"
   class="st6"
   width="100"
   height="37"
   id="rect297"
   style="fill:none" />
	<text
   transform="translate(688.2686,568.4211)"
   class="st7 st9"
   id="text299"
   style="font-size:11px;font-family:MyriadPro-Regular">Klasserom</text>

	<rect
   x="516"
   y="560.59998"
   class="st6"
   width="100"
   height="37"
   id="rect301"
   style="fill:none" />
	<text
   transform="translate(516,568.4211)"
   class="st7 st9"
   id="text303"
   style="font-size:11px;font-family:MyriadPro-Regular">Klasserom</text>

	<rect
   x="373"
   y="558.59998"
   class="st6"
   width="100"
   height="37"
   id="rect305"
   style="fill:none" />
	<text
   transform="translate(373,566.4211)"
   class="st7 st9"
   id="text307"
   style="font-size:11px;font-family:MyriadPro-Regular">Klasserom</text>

	<rect
   x="253.89999"
   y="546.90002"
   class="st6"
   width="100"
   height="37"
   id="rect309"
   style="fill:none" />
	<text
   transform="translate(253.9255,554.6996)"
   class="st7 st9"
   id="text311"
   style="font-size:11px;font-family:MyriadPro-Regular">Klasserom</text>

	<rect
   x="299.39999"
   y="431.79999"
   class="st6"
   width="66.199997"
   height="27"
   id="rect313"
   style="fill:none" />
	<text
   transform="translate(299.4386,438.9132)"
   class="st7 st11"
   id="text315"
   style="font-size:10px;font-family:MyriadPro-Regular">Heis/Trapp</text>

	<rect
   x="247.2"
   y="382.10001"
   class="st6"
   width="20"
   height="11.8"
   id="rect317"
   style="fill:none" />
	<text
   transform="translate(247.2141,389.9089)"
   class="st7 st9"
   id="text319"
   style="font-size:11px;font-family:MyriadPro-Regular">wc</text>

	<rect
   x="295"
   y="382.10001"
   class="st6"
   width="20"
   height="11.8"
   id="rect321"
   style="fill:none" />
	<text
   transform="translate(294.9995,389.9089)"
   class="st7 st9"
   id="text323"
   style="font-size:11px;font-family:MyriadPro-Regular">wc</text>

	<path
   d="M 208.2,339.2"
   id="path325"
   inkscape:connector-curvature="0" />
	<rect
   x="245"
   y="235.39999"
   class="st6"
   width="100"
   height="37"
   id="rect327"
   style="fill:none" />
	<text
   transform="translate(244.9998,243.1996)"
   class="st7 st9"
   id="text329"
   style="font-size:11px;font-family:MyriadPro-Regular">Klasserom</text>

	<rect
   x="257.5"
   y="563.90002"
   class="st6"
   width="88.5"
   height="20"
   id="rect331"
   style="fill:none" />
	<text
   transform="translate(257.4943,570.9896)"
   class="st7 st11"
   id="text333"
   style="font-size:10px;font-family:MyriadPro-Regular">FUN 205</text>

	<rect
   x="378.79999"
   y="573.90002"
   class="st6"
   width="88.5"
   height="20"
   id="rect335"
   style="fill:none" />
	<text
   transform="translate(378.75,580.9896)"
   class="st7 st11"
   id="text337"
   style="font-size:10px;font-family:MyriadPro-Regular">FUN 206</text>

	<rect
   x="521.79999"
   y="573.90002"
   class="st6"
   width="88.5"
   height="20"
   id="rect339"
   style="fill:none" />
	<text
   transform="translate(521.75,580.9896)"
   class="st7 st11"
   id="text341"
   style="font-size:10px;font-family:MyriadPro-Regular">FUN 207</text>

	<rect
   x="697.90002"
   y="577.59998"
   class="st6"
   width="88.5"
   height="20"
   id="rect343"
   style="fill:none" />
	<text
   transform="translate(697.8829,584.7111)"
   class="st7 st11"
   id="text345"
   style="font-size:10px;font-family:MyriadPro-Regular">FUN 208</text>

	<rect
   x="806.09998"
   y="577.59998"
   class="st6"
   width="88.5"
   height="20"
   id="rect347"
   style="fill:none" />
	<text
   transform="translate(806.0546,584.7111)"
   class="st7 st11"
   id="text349"
   style="font-size:10px;font-family:MyriadPro-Regular">FML 209</text>

	<rect
   x="888.5"
   y="528.90002"
   class="st6"
   width="88.5"
   height="20"
   id="rect351"
   style="fill:none" />
	<text
   transform="translate(888.4955,535.9896)"
   class="st7 st11"
   id="text353"
   style="font-size:10px;font-family:MyriadPro-Regular">FML 210</text>

	<rect
   x="247.2"
   y="253.89999"
   class="st6"
   width="88.5"
   height="20"
   id="rect355"
   style="fill:none" />
	<text
   transform="translate(247.2144,260.9896)"
   class="st7 st11"
   id="text357"
   style="font-size:10px;font-family:MyriadPro-Regular">FUN 201</text>

</g>

<a xlink:href="https://www.google.com">
<path
   style="fill:#000000;stroke:#000000;stroke-width:1px;stroke-linecap:butt;stroke-linejoin:miter;stroke-opacity:1;fill-opacity:0.11764706;opacity:0"
   d="m 204.8,169.4 c 3,139.1 3,139.1 3,139.1 l 142.4,0.1 V 185.4 Z"
   id="path4073"
   inkscape:connector-curvature="0"
   inkscape:label="FUN201"
   onmouseover="this.style.opacity=1"
   onmouseout="this.style.opacity=0" /><path
   style="fill:#000000;stroke:#000000;stroke-width:1px;stroke-linecap:butt;stroke-linejoin:miter;stroke-opacity:1;fill-opacity:0.11764706;opacity:0"
   d="m 211.9,497.9 h 138.6 v 118.7 l -136,1 z"
   id="path4075"
   inkscape:connector-curvature="0"
   inkscape:label="FUN205"
   onmouseover="this.style.opacity=1"
   onmouseout="this.style.opacity=0" /><path
   style="fill:#000000;stroke:#000000;stroke-width:1px;stroke-linecap:butt;stroke-linejoin:miter;stroke-opacity:1;fill-opacity:0.11764706;opacity:0"
   d="m 350.7,524.3 95,-0.4 v 93.3 l -43.7,0.4 -1.1,-21.5 -50.4,1.5 0.20001,-73.30001 v 0 z"
   id="path4077"
   inkscape:connector-curvature="0"
   inkscape:label="FUN206"
   onmouseover="this.style.opacity=1"
   onmouseout="this.style.opacity=0" /><path
   style="fill:#000000;stroke:#000000;stroke-width:1px;stroke-linecap:butt;stroke-linejoin:miter;stroke-opacity:1;fill-opacity:0.11764706;opacity:0"
   d="M 445.7,523.9 641.70001,524.90002 641.29999,616.5 445.7,617.2 Z"
   id="path4079"
   inkscape:connector-curvature="0"
   inkscape:label="FUN207"
   onmouseover="this.style.opacity=1"
   onmouseout="this.style.opacity=0" /><path
   style="fill:#000000;stroke:#000000;stroke-width:1px;stroke-linecap:butt;stroke-linejoin:miter;stroke-opacity:1;fill-opacity:0.11764706;opacity:0"
   d="M 641.70001,524.90002 786.4,524.9 l 2e-5,91.69998 -145.10003,-0.1 z"
   id="path4081"
   inkscape:connector-curvature="0"
   inkscape:label="FUN208"
   onmouseover="this.style.opacity=1"
   onmouseout="this.style.opacity=0" /><path
   style="fill:#000000;stroke:#000000;stroke-width:1px;stroke-linecap:butt;stroke-linejoin:miter;stroke-opacity:1;fill-opacity:0.11764706;opacity:0"
   d="m 786.4,501.1 77.19998,10e-6 2e-5,54.59999 h 21 v 59.8 l -98.19998,1.09998 z"
   id="path4083"
   inkscape:connector-curvature="0"
   inkscape:label="FML209"
   onmouseover="this.style.opacity=1"
   onmouseout="this.style.opacity=0" /><path
   style="fill:#000000;stroke:#000000;stroke-width:1px;stroke-linecap:butt;stroke-linejoin:miter;stroke-opacity:1;fill-opacity:0.11764706;opacity:0"
   d="m 862.59998,477.10001 1.20001,18.79998 L 863.6,555.7 h 21 v 59.8 l 57.1,-0.9 -2.7,-145.49999 h -38.40002 v 12.20001 H 888.5 V 473.8 l -25.3,-0.7 v 0 z"
   id="path4085"
   inkscape:connector-curvature="0"
   inkscape:label="FML210"
   onmouseover="this.style.opacity=1"
   onmouseout="this.style.opacity=0" />
</a>

</svg>