<?xml version="1.0" encoding="utf-8"?>
<!-- Generator: Adobe Illustrator 19.1.0, SVG Export Plug-In . SVG Version: 6.00 Build 0)  -->
<svg version="1.1" id="Layer_1" xmlns="http://www.w3.org/2000/svg" xmlns:xlink="http://www.w3.org/1999/xlink" x="0px" y="0px"
	 viewBox="-192 353.6 211 85.3" style="enable-background:new -192 353.6 211 85.3;" xml:space="preserve">
<g>
	<path id="Logo_1_" d="M-124.7,382.2h-7.1v-28.4h7.1V382.2z M-184.9,353.8h-7.1v28.3h7.1V368V353.8z M-170.7,368h-14.2l14.2,14.2
		V368z M-142.4,360.9c0-3.9-3.2-7.1-7.1-7.1V368C-145.6,368-142.4,364.8-142.4,360.9z M-192,389.3c0,3.9,3.2,7.1,7.1,7.1v-14.2
		C-188.8,382.2-192,385.3-192,389.3z M-177.8,403.4c0-3.9-3.2-7.1-7.1-7.1v14.2C-181,410.5-177.8,407.3-177.8,403.4z M-142.4,410.5
		v-28.3h7.1l-28.4-28.4v28.3h-7.1h-7.1v7.1h14.2v21.3h7.1v-21.2v-7.1h7.1v28.3H-142.4z M-128.2,396.3l-14.2,14.2h28.4L-128.2,396.3z
		 M-142.4,438.9h28.4l-14.2-14.2L-142.4,438.9z M-149.5,438.9v-28.4h-7.1v28.3h7.1V438.9z M-192,410.5l28.3,28.3v-28.3h-21.2H-192z
		 M-91.3,363.4h2.5v18.8h-2.5v-8.3h-9.6v8.3h-2.5v-18.8h2.5v8.4h9.6V363.4z M-71.7,375.4c0,4.1-2.8,7-6.8,7c-1.5,0-3-0.5-4.1-1.4
		l-1.9,2.1l-1.3-1.1l2-2.2c-0.9-1.2-1.4-2.7-1.4-4.4v-0.2c0-4.1,2.9-7,6.8-7c1.5,0,2.9,0.4,4,1.3l1.8-1.9l1.3,1.1l-1.8,2
		c1,1.3,1.5,2.8,1.5,4.5L-71.7,375.4L-71.7,375.4z M-82.8,375.4c0,1,0.2,1.9,0.5,2.7l6.4-7.1c-0.7-0.6-1.6-0.9-2.6-0.9
		c-2.6,0-4.3,2-4.3,5V375.4z M-74.1,375.4v-0.2c0-1.1-0.2-2-0.6-2.9l-6.5,7.1c0.7,0.6,1.7,0.9,2.8,0.9
		C-75.8,380.4-74.1,378.4-74.1,375.4z M-67.5,386.9h2.4l7.5-18.4l0.1-0.1h-2.4l-3.7,9.6l-4.1-9.5v-0.1h-2.5l5.4,12.3L-67.5,386.9z
		 M-50.9,374L-50.9,374c-2.4-0.4-3.1-0.9-3.1-2.1c0-1.1,1-1.9,2.5-1.9c1.7,0,2.5,0.6,2.8,2.1v0.1h2.3v-0.1c-0.4-3.3-3-4-5-4
		c-3.1,0-4.7,2-4.7,3.9c0,2.4,1.2,3.4,4.8,4.1c2,0.4,3.1,0.8,3.1,2.2s-0.9,2.1-2.9,2.1c-1.9,0-2.9-0.8-3.1-2.5v-0.1h-2.3v0.1
		c0.1,2.8,2.2,4.5,5.4,4.5s5.1-1.6,5.1-4.2C-46,375.2-48.1,374.6-50.9,374z M-32.4,368.5l0.2-0.2H-35l-5.5,6.1v-12.5h-2.4v20.3h2.4
		v-6.9l5.9,6.8l0,0h2.9l-6.4-7.4L-32.4,368.5z M-17.6,375.2v0.2c0,4.1-2.8,7-6.8,7c-3.9,0-6.8-3-6.8-7v-0.2c0-4.1,2.9-7,6.8-7
		C-20.5,368.1-17.6,371.1-17.6,375.2z M-28.7,375.4c0,3.1,1.7,5,4.3,5s4.3-2,4.3-5v-0.2c0-3.1-1.7-5.1-4.3-5.1s-4.3,2-4.3,5V375.4z
		 M-12,361.9h-2.4v20.3h2.4V361.9z M2,369.7c1.3,1.2,1.9,3,1.9,5.3v0.8H-6.3c0.1,3,1.6,4.6,4.3,4.6c2.1,0,3.2-0.8,3.5-2.3V378h2.4
		v0.1c-0.5,2.7-2.7,4.2-5.9,4.2c-4,0-6.7-2.8-6.7-7v-0.2c0-4.2,2.7-7.1,6.5-7.1C-0.6,368.1,0.9,368.7,2,369.7z M-6.3,373.9h7.7
		c-0.2-2.5-1.5-3.7-3.8-3.7C-4.4,370.1-5.9,371.5-6.3,373.9z M13.6,368.1c-2.2,0-3.6,1-4.3,2.1v-1.9H7v13.8h2.4v-8.3
		c0-2.5,1.9-3.6,3.7-3.6c2.1,0,3.1,1,3.1,3.4v8.6h2.4v-8.4C18.5,369.1,15.8,368.1,13.6,368.1z M-90.1,391.7h-2.8l-7.9,8.8v-8.8h-2.5
		v18.8h2.5v-8.9l8.1,8.9l0,0h3l-8.8-9.7L-90.1,391.7z M-85.6,398.9v-2.2H-88v13.8h2.4v-7.6c0-3.3,1.7-4.1,4.4-4.2h0.1v-2.2h-0.1
		C-83.7,396.6-84.9,397.7-85.6,398.9z M-77,391c-0.8,0-1.5,0.7-1.5,1.5c0,0.8,0.7,1.5,1.5,1.5s1.5-0.7,1.5-1.5
		C-75.5,391.7-76.2,391-77,391z M-78.1,410.5h2.4v-13.8h-2.4V410.5z M-67,402.4L-67,402.4c-2.4-0.4-3.1-0.9-3.1-2.1
		c0-1.1,1-1.9,2.5-1.9c1.7,0,2.5,0.6,2.8,2.1v0.1h2.3v-0.1c-0.4-3.3-3-4-5-4c-3.1,0-4.7,2-4.7,3.9c0,2.4,1.2,3.4,4.8,4.1
		c2,0.4,3.1,0.8,3.1,2.2c0,1.4-0.9,2.1-2.9,2.1c-1.9,0-2.9-0.8-3.1-2.5v-0.1h-2.3v0.1c0.1,2.8,2.2,4.5,5.4,4.5
		c3.2,0,5.1-1.6,5.1-4.2C-62.2,403.5-64.3,402.9-67,402.4z M-54.7,408.7c-1.1,0-1.6-0.6-1.6-1.9v-8.1h3.2v-2h-3.2v-3.1h-2.4v3.1h-2
		v2h2v8.3c0,2.3,1.4,3.7,3.8,3.7c0.9,0,1.5-0.1,1.9-0.3h0.1v-2l-0.1,0.1C-53.5,408.6-54,408.7-54.7,408.7z M-49.8,410.5h2.4v-13.8
		h-2.4V410.5z M-48.7,391c-0.8,0-1.5,0.7-1.5,1.5c0,0.8,0.7,1.5,1.5,1.5s1.5-0.7,1.5-1.5C-47.1,391.7-47.8,391-48.7,391z
		 M-33.2,401.4v9.1h-2.4V409c-1.1,1.2-2.3,1.8-4.1,1.8c-2.9,0-4.6-1.5-4.6-4.1c0-1.3,0.7-4.3,6.9-4.3h1.9v-0.9c0-2.1-0.8-3-2.8-3
		c-1.8,0-2.8,0.8-3,2.4v0.1h-2.4v-0.1c0.1-1.3,0.9-4.3,5.5-4.3C-35,396.5-33.2,398.2-33.2,401.4z M-37.3,404.1
		c-3.1,0-4.6,0.9-4.6,2.6c0,1.5,0.8,2.2,2.5,2.2c2.4,0,3.9-1.2,3.9-3.2v-1.6H-37.3z M-22.6,396.5c-2.2,0-3.6,1-4.3,2.1v-1.9h-2.4
		v13.8h2.4v-8.3c0-2.5,1.9-3.6,3.7-3.6c2.1,0,3.1,1,3.1,3.4v8.6h2.4v-8.4C-17.7,397.5-20.3,396.5-22.6,396.5z M-13.6,410.5h2.4
		v-13.8h-2.4V410.5z M-12.4,391c-0.8,0-1.5,0.7-1.5,1.5c0,0.8,0.7,1.5,1.5,1.5s1.5-0.7,1.5-1.5C-10.9,391.7-11.6,391-12.4,391z
		 M3,401.4v9.1H0.6V409c-1.1,1.2-2.3,1.8-4.1,1.8c-2.9,0-4.6-1.5-4.6-4.1c0-1.3,0.7-4.3,6.9-4.3h1.9v-0.9c0-2.1-0.8-3-2.8-3
		c-1.8,0-2.8,0.8-3,2.4v0.1h-2.4v-0.1c0.1-1.3,0.9-4.3,5.5-4.3C1.2,396.5,3,398.2,3,401.4z M-1.1,404.1c-3.1,0-4.6,0.9-4.6,2.6
		c0,1.5,0.8,2.2,2.5,2.2c2.4,0,3.9-1.2,3.9-3.2v-1.6H-1.1z"/>
</g>
</svg>
